<svg id="Layer_1" data-name="Layer 1" xmlns="http://www.w3.org/2000/svg" viewBox="0 0 1409 283"><defs><style>.cls-1,.cls-2,.cls-3{fill:none;stroke:#fff;stroke-width:3.66px;}.cls-1{stroke-miterlimit:10;}.cls-2{stroke-linejoin:round;}.cls-3{stroke-linejoin:bevel;}.cls-4{fill:#fff;}</style></defs><line class="cls-1" x1="150.81" y1="151.74" x2="150.81" y2="232.88"/><path class="cls-1" d="M150.81,169.79c-9.14-.87-14.26-3.8-14.26,5s-.73,11-8,8.05S95.61,166,95.61,166v-7.31s1.47-2.92-4.38-5.85-27-13.89-27-13.89-4.39-.73-4.39,2.93-2.92.73-6.58-.74-16.81-8.77-16.81-8.77-2.93-.73-2.93-10.23-1.46-7.31-4.38-8.78-4.39-2.19-3.66-10.23"/><line class="cls-1" x1="150.45" y1="151.37" x2="26.89" y2="95.81"/><polyline class="cls-2" points="25.43 103.12 26.89 95.81 170.18 49.75 268.88 73.88 150.44 151.37"/><polyline class="cls-2" points="93.42 145.52 64.18 131.63 64.18 120.66 93.42 134.56 93.42 145.52 93.3 145.49"/><polyline class="cls-3" points="42.61 135.65 54.31 172.21 53.94 171.84 150.44 233.25 248.41 144.06 268.88 73.88"/><path class="cls-1" d="M73,115.55l16.82-7.31s9.5-3.66,16.08.73,15.35-1.47,15.35-1.47l5.12-3.65s2.92-.73-2.19-4.39-2.2-5.85,1.46-7.31,9.5-4.38,14.62-2.19,8,2.92,13.16,2.92,11-3.65,11-3.65,3.65-.73-1.47-5.12-2.19-5.12.73-6.58,6.58-2.19,12.43-.73a33.56,33.56,0,0,0,14.62.73c5.12-.73,5.85-2.92,5.85-2.92s1.47-2.2-3.65-4.39-2.93-2.19-1.46-3.66,5.84-2.19,8.77-2.19,4.39,0,5.85.73,4.3,1.48,10.56-4"/><line class="cls-2" x1="151.18" y1="169.65" x2="265.22" y2="89.96"/><path class="cls-4" d="M306.57,70.19h22.9l-16,75.26H290.54Z"/><path class="cls-4" d="M349.08,70.19h36.33l16.81,50,37.91-50h36.11l-16,75.26H437.88l13.53-58.11-45.69,58.11H387.33L366.91,87.34l-11.74,58.11H333.06Z"/><path class="cls-4" d="M495.81,70.19h57.54c14.56,0,18.06.45,22.34,2.82,4.52,2.48,6.77,6.77,6.77,12.75,0,5.76-2.14,16.13-4.85,23.92-3.05,8.46-9.13,14.33-16.69,16-4.63.91-8.81,1.24-17.61,1.24H506.53l-3.95,18.51H479.79Zm47.84,38.47c6.66,0,9.37-.78,11.51-3.27,1.8-2.25,3.16-6.77,3.16-10.83,0-2.71-.91-4.29-2.94-5.19-1.8-.79-2.7-.9-7.44-.9H514.65l-4.28,20.19Z"/><path class="cls-4" d="M300.68,218.68h-7.91V167h7.91Z"/><path class="cls-4" d="M317,182.47l-.23,5.58.15.08c1.71-4.19,5.35-6.13,11.56-6.13,5.89,0,9.93,1.55,11.71,4.65.93,1.63,1.24,3.49,1.24,7.91v24.12h-7.13V196.27c0-7.13-1.17-8.45-7.53-8.45-6.9,0-9.77,2.71-9.77,9.23v21.63h-7.13V182.47Z"/><path class="cls-4" d="M367.91,218.68H357.13l-11.4-36.21h7.44l5.51,18.14c1.32,4.42,1.39,4.5,2.87,9.7l.93,3.25h.07l.94-3.25c1.39-5.2,1.62-6.13,2.63-9.7l5.28-18.14h7.67Z"/><path class="cls-4" d="M414.81,207.36v1.39c0,7.6-4.18,10.4-15.58,10.4-13.88,0-17-3.49-17-18.77,0-14.73,3.34-18.38,16.83-18.38,9.08,0,12.88,1.94,14.74,7.37.85,2.63,1,4.65,1,12.48H389.53v1.09c0,8.76,1.63,10.62,9.31,10.62s8.76-.85,8.76-6.2Zm-7.13-10.31c-.08-4.66-.16-5.12-.7-6.52-.85-2.33-2.87-3.1-8.06-3.1-7.91,0-9.23,1.39-9.31,9.62Z"/><path class="cls-4" d="M429.62,182.47l-.23,5.58.16.08c1.7-4.19,5.34-6.13,11.55-6.13,5.89,0,9.93,1.55,11.71,4.65.93,1.63,1.24,3.49,1.24,7.91v24.12h-7.13V196.27c0-7.13-1.17-8.45-7.53-8.45-6.9,0-9.77,2.71-9.77,9.23v21.63h-7.13V182.47Z"/><path class="cls-4" d="M484.36,188.05H470.48v20c0,4.34.86,5.42,4.35,5.42,3.87,0,4.8-1.24,4.8-6.51a14.75,14.75,0,0,0-.08-1.71h6.21c.08,1,.08,2.18.08,2.49,0,8.45-2.95,11.4-11.4,11.4-5.9,0-8.92-1.32-10.32-4.58-.61-1.32-.77-2.56-.77-5.82v-20.7h-4.89v-5.58h4.89v-8.38h7.13v8.38h13.88Z"/><path class="cls-4" d="M520,184.79c2.79,2.48,3.88,6.59,3.88,15.05,0,16.13-2.72,19.31-16.68,19.31-8.06,0-11.94-1.24-14-4.5-1.86-2.79-2.48-6.44-2.48-14.66,0-14.73,2.95-18,16.44-18C514.52,182,517.63,182.7,520,184.79Zm-21.94,15.44c0,11.86.92,13.18,9.3,13.18,8.07,0,9.15-1.55,9.15-13.11,0-11.16-1-12.56-9.23-12.56S498.09,189.21,498.09,200.23Z"/><path class="cls-4" d="M538.71,182.47l-.54,4.65.16.08c2.32-4,5-5.43,10.08-5.43,6.9,0,9.77,3.25,9.77,11.17,0,.31,0,1.47-.08,2.55h-6.75c.08-1.08.08-1.7.08-2.4,0-4.19-1.32-5.59-5.19-5.59-3.34,0-5.67,1.25-6.75,3.49-.54,1.32-.78,2.88-.78,6.13v21.56h-7.13V182.47Z"/><path class="cls-4" d="M583,220.85a39.28,39.28,0,0,1-3.57,9.54c-1.94,3-5.2,4.42-9.92,4.42-1,0-1.64-.08-2.8-.16v-5.5c.62.08,1.32.16,1.56.16q3.6,0,4.88-2.33a29.37,29.37,0,0,0,2.79-8.3h-3.34l-12.4-36.21h7.6l5,15.74,2.48,7.83,1.24,4,1.16,3.88H578l.85-3.88.93-4,1.86-7.83,3.81-15.74h7.44Z"/><path class="cls-4" d="M675.26,218.68h-7.83V184.17c0-3.26,0-3.64.23-8.22l.08-2.71h-.24l-.77,2.4c-1.55,4.58-2,5.82-2.64,7.29l-14.35,35.75H642.3l-14.5-35.36c-.7-1.78-1.09-2.87-2.64-7.29l-.85-2.48h-.16l.08,2.63c.24,4.35.24,5.12.24,8v34.51h-7.84V167h13.11l11.48,28.53c1,2.56,1.39,3.8,3.49,9.46l1.08,3.18H646l1.09-3.18c1.94-5.58,2.48-7,3.41-9.46L661.92,167h13.34Z"/><path class="cls-4" d="M684.63,192.78c.08-3.64.39-5.35,1.4-7,1.78-2.71,5.66-3.8,13.57-3.8,12.25,0,15.74,2.87,15.74,12.87v23.81h-7.13l.38-4.42-.16-.08c-2.09,3.8-4.88,5-11.86,5-9.92,0-13.41-3-13.41-11.09,0-4.11,1.16-7.52,3.1-9,2.09-1.55,5.58-2.4,10.46-2.4,3.8,0,6.83.39,8.77,1.24a4.5,4.5,0,0,1,2.56,2.64h.16v-5.12c0-7-1.4-8.46-8.38-8.46-5.2,0-7.21.86-7.76,3.11a24.86,24.86,0,0,0-.23,2.71Zm5.89,14.5c0,5.27,1.48,6.44,8.3,6.44,7.21,0,9.54-1.48,9.54-5.89,0-4.81-2-6.13-9.07-6.13S690.52,202.78,690.52,207.28Z"/><path class="cls-4" d="M731.24,182.47l-.23,5.58.15.08c1.7-4.19,5.35-6.13,11.55-6.13,5.9,0,9.93,1.55,11.71,4.65.93,1.63,1.24,3.49,1.24,7.91v24.12h-7.13V196.27c0-7.13-1.16-8.45-7.52-8.45-6.91,0-9.77,2.71-9.77,9.23v21.63H724.1V182.47Z"/><path class="cls-4" d="M764.73,192.78c.07-3.64.38-5.35,1.4-7,1.78-2.71,5.65-3.8,13.56-3.8,12.26,0,15.75,2.87,15.75,12.87v23.81H788.3l.39-4.42-.16-.08c-2.09,3.8-4.88,5-11.86,5-9.93,0-13.42-3-13.42-11.09,0-4.11,1.17-7.52,3.11-9s5.58-2.4,10.46-2.4c3.8,0,6.83.39,8.77,1.24a4.5,4.5,0,0,1,2.56,2.64h.15v-5.12c0-7-1.39-8.46-8.37-8.46-5.2,0-7.22.86-7.76,3.11a22.37,22.37,0,0,0-.23,2.71Zm5.89,14.5c0,5.27,1.47,6.44,8.3,6.44,7.21,0,9.54-1.48,9.54-5.89,0-4.81-2-6.13-9.08-6.13S770.62,202.78,770.62,207.28Z"/><path class="cls-4" d="M835.44,220.15c0,11.25-3.87,14.66-16.52,14.66-7.75,0-11.78-1.47-13.57-4.89-.85-1.62-1.16-3.25-1.16-7.21H811c.09,5.51,1.25,6.44,8.3,6.44s9-1.78,9-7.75v-7.76h-.16c-1.55,3.8-4.88,5.43-11.09,5.43-5,0-8.68-1.24-10.93-3.65-2.48-2.79-3.34-6.28-3.34-14.65,0-8.77.86-12.49,3.57-15.36,2.18-2.32,5.74-3.41,10.78-3.41,6.36,0,9.38,1.55,11.32,6l.16-.08-.31-5.42h7.13ZM810.16,200c0,11.33,1.32,13.26,8.92,13.26s9.07-2.25,9.07-13.41c0-9.93-1.63-12-9.14-12S810.16,189.76,810.16,200Z"/><path class="cls-4" d="M875.53,207.36v1.39c0,7.6-4.19,10.4-15.59,10.4-13.88,0-17-3.49-17-18.77,0-14.73,3.34-18.38,16.83-18.38,9.07,0,12.87,1.94,14.73,7.37.85,2.63,1,4.65,1,12.48H850.25v1.09c0,8.76,1.63,10.62,9.31,10.62s8.76-.85,8.76-6.2Zm-7.14-10.31c-.07-4.66-.15-5.12-.69-6.52-.85-2.33-2.87-3.1-8.07-3.1-7.91,0-9.22,1.39-9.3,9.62Z"/><path class="cls-4" d="M890.34,182.47l-.16,5.5.16.08c2-4.34,5.27-6.05,11.4-6.05s10,2.17,11,6.44h.15c2.1-4.58,5.66-6.44,12-6.44,5.35,0,9.15,1.55,10.93,4.42,1.16,1.86,1.63,4.34,1.63,8.45v23.81h-7.14V195.57a14.41,14.41,0,0,0-.77-5.19c-.85-1.71-2.87-2.49-6.21-2.49-4.42,0-7.6,1.32-8.6,3.57-.62,1.24-.86,3.18-.86,6.13v21.09H906.7v-23c-.16-4.35-.16-4.35-.62-5.27-.85-1.63-3-2.49-6.36-2.49-6.83,0-9.38,2.8-9.38,10v20.78H883.2V182.47Z"/><path class="cls-4" d="M977.65,207.36v1.39c0,7.6-4.19,10.4-15.59,10.4-13.88,0-17-3.49-17-18.77,0-14.73,3.34-18.38,16.83-18.38,9.07,0,12.87,1.94,14.73,7.37.85,2.63,1,4.65,1,12.48H952.37v1.09c0,8.76,1.63,10.62,9.3,10.62s8.77-.85,8.77-6.2Zm-7.14-10.31c-.07-4.66-.15-5.12-.69-6.52-.86-2.33-2.87-3.1-8.07-3.1-7.91,0-9.22,1.39-9.31,9.62Z"/><path class="cls-4" d="M992.46,182.47l-.24,5.58.16.08c1.7-4.19,5.35-6.13,11.55-6.13,5.9,0,9.93,1.55,11.71,4.65.93,1.63,1.24,3.49,1.24,7.91v24.12h-7.13V196.27c0-7.13-1.16-8.45-7.52-8.45-6.91,0-9.77,2.71-9.77,9.23v21.63h-7.14V182.47Z"/><path class="cls-4" d="M1047.2,188.05h-13.89v20c0,4.34.86,5.42,4.35,5.42,3.87,0,4.81-1.24,4.81-6.51a13.12,13.12,0,0,0-.09-1.71h6.21c.08,1,.08,2.18.08,2.49,0,8.45-3,11.4-11.4,11.4-5.89,0-8.92-1.32-10.32-4.58-.62-1.32-.77-2.56-.77-5.82v-20.7h-4.89v-5.58h4.89v-8.38h7.13v8.38h13.89Z"/><path class="cls-4" d="M1073,167h21.25c9.07,0,10.93.31,14,2.4,3.33,2.41,4.8,6.82,4.8,14.73,0,8.22-2.09,12.88-6.74,14.82-2.48,1.08-2.79,1.16-12.18,1.32h-13.18v18.45H1073Zm20.4,26.44c10.08,0,11.63-1.32,11.63-9.46,0-6.13-.7-8.45-3-9.46-1.39-.7-2.71-.86-7.29-.86h-13.88V193.4Z"/><path class="cls-4" d="M1126.52,218.68h-7.14V167h7.14Z"/><path class="cls-4" d="M1135.66,192.78c.07-3.64.38-5.35,1.39-7,1.79-2.71,5.66-3.8,13.57-3.8,12.26,0,15.75,2.87,15.75,12.87v23.81h-7.14l.39-4.42-.16-.08c-2.09,3.8-4.88,5-11.86,5-9.93,0-13.42-3-13.42-11.09,0-4.11,1.17-7.52,3.11-9,2.09-1.55,5.58-2.4,10.46-2.4,3.8,0,6.83.39,8.76,1.24a4.49,4.49,0,0,1,2.57,2.64h.15v-5.12c0-7-1.39-8.46-8.37-8.46-5.2,0-7.22.86-7.76,3.11a22.37,22.37,0,0,0-.23,2.71Zm5.89,14.5c0,5.27,1.47,6.44,8.3,6.44,7.21,0,9.54-1.48,9.54-5.89,0-4.81-2-6.13-9.08-6.13S1141.55,202.78,1141.55,207.28Z"/><path class="cls-4" d="M1197.22,188.05h-13.88v20c0,4.34.85,5.42,4.34,5.42,3.88,0,4.82-1.24,4.82-6.51a13.12,13.12,0,0,0-.09-1.71h6.2c.09,1,.09,2.18.09,2.49,0,8.45-3,11.4-11.4,11.4-5.89,0-8.92-1.32-10.32-4.58-.62-1.32-.77-2.56-.77-5.82v-20.7h-4.89v-5.58h4.89v-8.38h7.13v8.38h13.88Z"/><path class="cls-4" d="M1205,188.05h-5.28v-5.58H1205v-4.58c0-3.72.61-6.44,1.93-8,2-2.4,5.27-3.49,10.63-3.49a36.85,36.85,0,0,1,3.8.24v5.66a21.62,21.62,0,0,0-3.49-.31c-4.27,0-5.74,1.47-5.74,5.66v4.81h9.38v5.58h-9.38v30.63H1205Z"/><path class="cls-4" d="M1255,184.79c2.79,2.48,3.88,6.59,3.88,15.05,0,16.13-2.72,19.31-16.68,19.31-8.06,0-11.94-1.24-14-4.5-1.87-2.79-2.49-6.44-2.49-14.66,0-14.73,2.95-18,16.44-18C1249.48,182,1252.58,182.7,1255,184.79Zm-22,15.44c0,11.86.94,13.18,9.31,13.18,8.06,0,9.15-1.55,9.15-13.11,0-11.16-1-12.56-9.23-12.56S1233,189.21,1233,200.23Z"/><path class="cls-4" d="M1273.67,182.47l-.54,4.65.15.08c2.33-4,5-5.43,10.09-5.43,6.89,0,9.76,3.25,9.76,11.17,0,.31,0,1.47-.07,2.55h-6.75c.08-1.08.08-1.7.08-2.4,0-4.19-1.32-5.59-5.2-5.59-3.33,0-5.66,1.25-6.75,3.49-.54,1.32-.77,2.88-.77,6.13v21.56h-7.13V182.47Z"/><path class="cls-4" d="M1305.93,182.47l-.16,5.5.16.08c2-4.34,5.27-6.05,11.4-6.05s10,2.17,11,6.44h.15c2.1-4.58,5.66-6.44,12-6.44,5.35,0,9.15,1.55,10.93,4.42,1.16,1.86,1.63,4.34,1.63,8.45v23.81h-7.14V195.57a14.41,14.41,0,0,0-.77-5.19c-.85-1.71-2.87-2.49-6.21-2.49-4.42,0-7.6,1.32-8.6,3.57-.62,1.24-.86,3.18-.86,6.13v21.09h-7.13v-23c-.16-4.35-.16-4.35-.62-5.27-.85-1.63-3-2.49-6.36-2.49-6.83,0-9.38,2.8-9.38,10v20.78h-7.14V182.47Z"/></svg>