<svg width="24" height="24" viewBox="0 0 24 24" fill="none" xmlns="http://www.w3.org/2000/svg">
<path d="M12 24C11.2684 24 10.6672 23.4509 10.599 22.7487L10.5926 22.6154L10.5935 4.72708L4.90259 10.3252C4.35297 10.866 3.46185 10.866 2.91222 10.3252C2.39694 9.81829 2.36474 9.01608 2.81561 8.47224L2.91222 8.36708L11.0048 0.405544C11.0437 0.36728 11.0843 0.331724 11.1264 0.298875L11.2412 0.218132L11.3646 0.148789L11.4741 0.0999114L11.6049 0.0553047L11.6589 0.041078C11.721 0.0258776 11.7839 0.0148957 11.8472 0.00813236C11.8975 0.00272765 11.9484 0 12 0L12.1528 0.00813236C12.2161 0.0148957 12.279 0.0258776 12.3411 0.041078L12.4348 0.0673556L12.5296 0.101386L12.6421 0.152193L12.7593 0.218588L12.8071 0.249986L12.9116 0.329706L12.9952 0.405544L21.0878 8.36708C21.6374 8.90781 21.6374 9.7845 21.0878 10.3252C20.5725 10.8322 19.7571 10.8638 19.2043 10.4203L19.0974 10.3252L13.4083 4.728L13.4074 22.6154C13.4074 23.3801 12.7773 24 12 24Z" fill="black"/>
</svg>
