<svg width="24" height="24" viewBox="0 0 24 24" fill="none" xmlns="http://www.w3.org/2000/svg">
<path d="M12 0C11.2684 0 10.6672 0.549127 10.599 1.25127L10.5926 1.38462L10.5935 19.2729L4.90259 13.6748C4.35297 13.134 3.46185 13.134 2.91222 13.6748C2.39694 14.1817 2.36474 14.9839 2.81561 15.5278L2.91222 15.6329L11.0048 23.5945C11.0437 23.6327 11.0843 23.6683 11.1264 23.7011L11.2412 23.7819L11.3646 23.8512L11.4741 23.9001L11.6049 23.9447L11.6589 23.9589C11.721 23.9741 11.7839 23.9851 11.8472 23.9919C11.8975 23.9973 11.9484 24 12 24L12.1528 23.9919C12.2161 23.9851 12.279 23.9741 12.3411 23.9589L12.4348 23.9326L12.5296 23.8986L12.6421 23.8478L12.7593 23.7814L12.8071 23.75L12.9116 23.6703L12.9952 23.5945L21.0878 15.6329C21.6374 15.0922 21.6374 14.2155 21.0878 13.6748C20.5725 13.1678 19.7571 13.1362 19.2043 13.5797L19.0974 13.6748L13.4083 19.272L13.4074 1.38462C13.4074 0.619913 12.7773 0 12 0Z" fill="black"/>
</svg>
