<svg width="24" height="24" viewBox="0 0 24 24" fill="none" xmlns="http://www.w3.org/2000/svg">
<path d="M24 12C24 12.7316 23.4509 13.3328 22.7487 13.401L22.6154 13.4074L4.72708 13.4065L10.3252 19.0974C10.866 19.647 10.866 20.5382 10.3252 21.0878C9.81829 21.6031 9.01608 21.6353 8.47224 21.1844L8.36708 21.0878L0.387293 12.9763C0.367455 12.9554 0.348249 12.9338 0.329706 12.9116L0.405544 12.9952C0.367281 12.9563 0.331724 12.9157 0.298876 12.8736L0.218132 12.7588L0.148788 12.6354L0.0999107 12.5259C0.0829391 12.4831 0.0680733 12.4396 0.0553055 12.3951L0.0410786 12.3411C0.0258789 12.279 0.0148964 12.2161 0.00813293 12.1528C0.00272751 12.1025 0 12.0516 0 12L0.00813293 11.8472C0.0148964 11.7839 0.0258789 11.721 0.0410786 11.6589L0.0673561 11.5652L0.101387 11.4704L0.152193 11.3579L0.218588 11.2407L0.249985 11.1929L0.329706 11.0884L0.405544 11.0048L8.36708 2.91222C8.90781 2.36259 9.7845 2.36259 10.3252 2.91222C10.8322 3.4275 10.8638 4.24291 10.4203 4.7957L10.3252 4.90259L4.728 10.5917L22.6154 10.5926C23.3801 10.5926 24 11.2227 24 12Z" fill="black"/>
</svg>
