<svg width="24" height="24" viewBox="0 0 24 24" fill="none" xmlns="http://www.w3.org/2000/svg">
<path fill-rule="evenodd" clip-rule="evenodd" d="M2.4988 0.343526C1.8971 -0.147226 1.00955 -0.112172 0.448687 0.448687C-0.149562 1.04694 -0.149562 2.01689 0.448687 2.61514L9.83354 12L0.448687 21.3849L0.343526 21.5012C-0.147226 22.1029 -0.112172 22.9905 0.448687 23.5513C1.04694 24.1496 2.01689 24.1496 2.61514 23.5513L12 14.1665L21.3849 23.5513L21.5012 23.6565C22.1029 24.1472 22.9905 24.1122 23.5513 23.5513C24.1496 22.9531 24.1496 21.9831 23.5513 21.3849L14.1665 12L23.5513 2.61514L23.6565 2.4988C24.1472 1.8971 24.1122 1.00955 23.5513 0.448687C22.9531 -0.149562 21.9831 -0.149562 21.3849 0.448687L12 9.83354L2.61514 0.448687L2.4988 0.343526Z" fill="#D42323"/>
</svg>
