<svg width="24" height="24" viewBox="0 0 24 24" fill="none" xmlns="http://www.w3.org/2000/svg">
<path fill-rule="evenodd" clip-rule="evenodd" d="M3.51472 3.51472C8.20102 -1.17157 15.799 -1.17157 20.4853 3.51473C25.1716 8.20102 25.1716 15.799 20.4853 20.4853C15.799 25.1716 8.201 25.1716 3.51472 20.4853C-1.17157 15.799 -1.17157 8.201 3.51472 3.51472ZM19.1671 4.3891C15.0698 0.526454 8.61615 0.599334 4.60774 4.60775C0.525105 8.69036 0.525105 15.3096 4.60775 19.3923C8.69036 23.4749 15.3096 23.4749 19.3923 19.3923C23.4007 15.3839 23.4735 8.93024 19.6109 4.83292L19.3923 4.60774L19.1671 4.3891ZM12.7658 10.0239C12.7146 9.6467 12.3912 9.35594 11.9999 9.35594H10.1287L10.0239 9.363C9.64663 9.41418 9.35587 9.73754 9.35587 10.1288L9.36292 10.2337C9.4141 10.6109 9.73747 10.9017 10.1287 10.9017L11.2264 10.9007L11.227 16.8444H10.1287L10.0239 16.8515C9.64663 16.9027 9.35587 17.226 9.35587 17.6173C9.35587 18.0442 9.7019 18.3902 10.1287 18.3902H13.8711L13.976 18.3831C14.3532 18.332 14.644 18.0086 14.644 17.6173C14.644 17.1905 14.298 16.8444 13.8711 16.8444H12.7728V10.1288L12.7658 10.0239ZM12.1268 4.68812L11.9999 4.68171L11.8731 4.68812C11.2475 4.75165 10.7593 5.28001 10.7593 5.92239C10.7593 6.6076 11.3147 7.16307 11.9999 7.16307C12.6851 7.16307 13.2406 6.6076 13.2406 5.92239C13.2406 5.28001 12.7524 4.75165 12.1268 4.68812Z" fill="black"/>
</svg>
