<svg width="24" height="24" viewBox="0 0 24 24" fill="none" xmlns="http://www.w3.org/2000/svg">
<path fill-rule="evenodd" clip-rule="evenodd" d="M13.6986 1.48167C13.5851 0.644923 12.8679 0 12 0C11.0532 0 10.2857 0.767512 10.2857 1.71429V10.2857H1.71429L1.48167 10.3014C0.644923 10.4149 0 11.1321 0 12C0 12.9468 0.767512 13.7143 1.71429 13.7143H10.2857V22.2857L10.3014 22.5183C10.4149 23.3551 11.1321 24 12 24C12.9468 24 13.7143 23.2325 13.7143 22.2857V13.7143H22.2857L22.5183 13.6986C23.3551 13.5851 24 12.8679 24 12C24 11.0532 23.2325 10.2857 22.2857 10.2857H13.7143V1.71429L13.6986 1.48167Z" fill="#198EFD"/>
</svg>
