<svg width="24" height="24" viewBox="0 0 24 24" fill="none" xmlns="http://www.w3.org/2000/svg">
<path fill-rule="evenodd" clip-rule="evenodd" d="M3.00215 3.00215C6.88729 -0.882986 13.1154 -0.997254 17.1383 2.65934L17.494 2.99999C21.1402 6.64459 21.4683 12.3468 18.4814 16.3601L23.5607 21.4393C24.1464 22.0251 24.1464 22.9749 23.5607 23.5607C23.0281 24.0932 22.1948 24.1416 21.6076 23.7059L21.4393 23.5607L16.3601 18.4814C12.3468 21.4683 6.64472 21.1404 3.00215 17.4978C-1.00072 13.495 -1.00072 7.00502 3.00215 3.00215ZM15.0666 4.83095C12.2196 2.29579 7.85366 2.3933 5.12348 5.12347C2.29218 7.95477 2.29218 12.5452 5.12348 15.3765C7.95477 18.2078 12.5452 18.2078 15.3765 15.3765C18.1067 12.6463 18.2042 8.28041 15.669 5.4334L15.3765 5.12347L15.0666 4.83095Z" fill="#198EFD"/>
</svg>
